<?xml version="1.0" encoding="UTF-8"?>
<svg xmlns="http://www.w3.org/2000/svg" width="400" height="400" viewBox="0 0 400 400">
    <defs>
        <radialGradient id="flowerGradient" cx="50%" cy="50%" r="50%" fx="50%" fy="50%">
            <stop offset="0%" style="stop-color:pink;stop-opacity:1" />
            <stop offset="100%" style="stop-color:purple;stop-opacity:0.6" />
        </radialGradient>
    </defs>
    
    <!-- Flower -->
    <g transform="translate(200,200)">
        <!-- Petals -->
        <path d="M0,-80 C20,-80 40,-60 40,-40 C40,-20 20,0 0,0 C-20,0 -40,-20 -40,-40 C-40,-60 -20,-80 0,-80" 
              fill="url(#flowerGradient)" transform="rotate(0)"/>
        <path d="M0,-80 C20,-80 40,-60 40,-40 C40,-20 20,0 0,0 C-20,0 -40,-20 -40,-40 C-40,-60 -20,-80 0,-80" 
              fill="url(#flowerGradient)" transform="rotate(72)"/>
        <path d="M0,-80 C20,-80 40,-60 40,-40 C40,-20 20,0 0,0 C-20,0 -40,-20 -40,-40 C-40,-60 -20,-80 0,-80" 
              fill="url(#flowerGradient)" transform="rotate(144)"/>
        <path d="M0,-80 C20,-80 40,-60 40,-40 C40,-20 20,0 0,0 C-20,0 -40,-20 -40,-40 C-40,-60 -20,-80 0,-80" 
              fill="url(#flowerGradient)" transform="rotate(216)"/>
        <path d="M0,-80 C20,-80 40,-60 40,-40 C40,-20 20,0 0,0 C-20,0 -40,-20 -40,-40 C-40,-60 -20,-80 0,-80" 
              fill="url(#flowerGradient)" transform="rotate(288)"/>
        
        <!-- Center -->
        <circle cx="0" cy="0" r="20" fill="yellow"/>
    </g>
    
    <!-- Bottle -->
    <g transform="translate(175,280)">
        <rect x="0" y="0" width="50" height="100" rx="5" fill="rgba(255,255,255,0.8)" stroke="purple"/>
        <rect x="15" y="-10" width="20" height="15" fill="rgba(255,255,255,0.8)" stroke="purple"/>
    </g>
</svg> 