<?xml version="1.0" encoding="UTF-8"?>
<svg xmlns="http://www.w3.org/2000/svg" width="400" height="400" viewBox="0 0 400 400">
    <!-- Tetrahedron -->
    <g id="tetrahedron" transform="translate(50,50)">
        <path d="M100,0 L0,173.2 L200,173.2 Z" fill="none" stroke="purple" stroke-width="2"/>
        <path d="M100,0 L100,173.2 L0,173.2 Z" fill="none" stroke="purple" stroke-width="2"/>
        <path d="M100,0 L100,173.2 L200,173.2 Z" fill="none" stroke="purple" stroke-width="2"/>
    </g>
    
    <!-- Cube -->
    <g id="cube" transform="translate(250,50)">
        <rect x="0" y="0" width="100" height="100" fill="none" stroke="purple" stroke-width="2"/>
        <rect x="20" y="20" width="100" height="100" fill="none" stroke="purple" stroke-width="2"/>
        <line x1="0" y1="0" x2="20" y2="20" stroke="purple" stroke-width="2"/>
        <line x1="100" y1="0" x2="120" y2="20" stroke="purple" stroke-width="2"/>
        <line x1="0" y1="100" x2="20" y2="120" stroke="purple" stroke-width="2"/>
        <line x1="100" y1="100" x2="120" y2="120" stroke="purple" stroke-width="2"/>
    </g>
    
    <!-- Octahedron -->
    <g id="octahedron" transform="translate(50,250)">
        <path d="M100,0 L0,100 L100,200 L200,100 Z" fill="none" stroke="purple" stroke-width="2"/>
        <path d="M100,0 L100,200" fill="none" stroke="purple" stroke-width="2"/>
        <path d="M0,100 L200,100" fill="none" stroke="purple" stroke-width="2"/>
    </g>
    
    <!-- Icosahedron -->
    <g id="icosahedron" transform="translate(250,250)">
        <path d="M100,0 L31,95 L169,95 Z" fill="none" stroke="purple" stroke-width="2"/>
        <path d="M31,95 L169,95 L100,190 Z" fill="none" stroke="purple" stroke-width="2"/>
        <path d="M100,0 L100,190" fill="none" stroke="purple" stroke-width="2"/>
    </g>
    
    <!-- Dodecahedron -->
    <g id="dodecahedron" transform="translate(450,250)">
        <path d="M100,0 L31,31 L0,100 L31,169 L100,200 L169,169 L200,100 L169,31 Z" fill="none" stroke="purple" stroke-width="2"/>
        <path d="M31,31 L169,31" fill="none" stroke="purple" stroke-width="2"/>
        <path d="M0,100 L200,100" fill="none" stroke="purple" stroke-width="2"/>
        <path d="M31,169 L169,169" fill="none" stroke="purple" stroke-width="2"/>
    </g>
</svg> 